# xmcd
#
# Track frame offsets: 
#        150
#        14882
#        37294
#        61456
#        81297
#        98004
#        118499
#        135740
#        149812
#
# Disc length: 2236 seconds
#
# Revision: 0
# Processed by: cddbd v1.5.2PL0 Copyright (c) Steve Scherf et al.
# Submitted via: ExactAudioCopy v0.95b3
#
DISCID=9208ba09
DTITLE=Robin Trower  - Caravan to Midnight  FLAC
DYEAR=1900
DGENRE=
TTITLE0=My Love (Burning Love)
TTITLE1=Caravan to Midnight
TTITLE2=I'm Out To Get You
TTITLE3=Lost in Love
TTITLE4=Fool
TTITLE5=It's for you
TTITLE6=Birthday Boy
TTITLE7=King of the Dance
TTITLE8=Sail On
EXTD=
EXTT0=
EXTT1=
EXTT2=
EXTT3=
EXTT4=
EXTT5=
EXTT6=
EXTT7=
EXTT8=
PLAYORDER=
